<svg width="243" height="58" viewBox="0 0 243 58" fill="none" xmlns="http://www.w3.org/2000/svg">
<g filter="url(#filter0_d_607_117)">
<mask id="path-1-inside-1_607_117" fill="white">
<path d="M212.5 0C227.688 0 240 12.3122 240 27.5C240 42.6878 227.688 55 212.5 55H27.5L26.79 54.9912C11.9303 54.6146 0 42.4505 0 27.5C1.44967e-07 12.3122 12.3122 5.21448e-07 27.5 0H212.5ZM27.5 7C16.1782 7 7 16.1782 7 27.5C7 38.8218 16.1782 48 27.5 48H212.5C223.822 48 233 38.8218 233 27.5C233 16.1782 223.822 7 212.5 7H27.5Z"/>
</mask>
<path d="M212.5 0C227.688 0 240 12.3122 240 27.5C240 42.6878 227.688 55 212.5 55H27.5L26.79 54.9912C11.9303 54.6146 0 42.4505 0 27.5C1.44967e-07 12.3122 12.3122 5.21448e-07 27.5 0H212.5ZM27.5 7C16.1782 7 7 16.1782 7 27.5C7 38.8218 16.1782 48 27.5 48H212.5C223.822 48 233 38.8218 233 27.5C233 16.1782 223.822 7 212.5 7H27.5Z" fill="white"/>
<path d="M240 27.5H241H240ZM27.5 55L27.4876 56H27.5V55ZM26.79 54.9912L26.7647 55.991L26.7777 55.9911L26.79 54.9912ZM0 27.5H-1H0ZM27.5 0V-1V-1V0ZM27.5 7V6V6V7ZM212.5 0V1C227.136 1 239 12.8645 239 27.5H240H241C241 11.7599 228.24 -1 212.5 -1V0ZM240 27.5H239C239 42.1355 227.136 54 212.5 54V55V56C228.24 56 241 43.2401 241 27.5H240ZM212.5 55V54H27.5V55V56H212.5V55ZM27.5 55L27.5124 54.0001L26.8024 53.9913L26.79 54.9912L26.7777 55.9911L27.4876 55.9999L27.5 55ZM26.79 54.9912L26.8154 53.9915C12.4965 53.6287 1 41.9067 1 27.5H0H-1C-1 42.9943 11.3641 55.6006 26.7647 55.9909L26.79 54.9912ZM0 27.5H1C1 12.8645 12.8645 1 27.5 1V0V-1C11.7599 -0.999999 -1 11.7599 -1 27.5H0ZM27.5 0V1H212.5V0V-1H27.5V0ZM27.5 7V6C15.6259 6 6 15.6259 6 27.5H7H8C8 16.7304 16.7304 8 27.5 8V7ZM7 27.5H6C6 39.3741 15.6259 49 27.5 49V48V47C16.7304 47 8 38.2696 8 27.5H7ZM27.5 48V49H212.5V48V47H27.5V48ZM212.5 48V49C224.374 49 234 39.3741 234 27.5H233H232C232 38.2696 223.27 47 212.5 47V48ZM233 27.5H234C234 15.6259 224.374 6 212.5 6V7V8C223.27 8 232 16.7304 232 27.5H233ZM212.5 7V6H27.5V7V8H212.5V7Z" fill="#1A1A1A" mask="url(#path-1-inside-1_607_117)"/>
</g>
<g filter="url(#filter1_d_607_117)">
<mask id="path-3-outside-2_607_117" maskUnits="userSpaceOnUse" x="24" y="14" width="200" height="37" fill="black">
<rect fill="white" x="24" y="14" width="200" height="37"/>
<path d="M25.9229 15.5771H28.4131H29.79H31.1816H32.5586L32.6025 25.3477L41.8311 25.3623V15.5771H44.585H45.9766H47.3535H48.7305H47.3535H48.7305V18.3311V19.708V23.1504V24.5273V26.5928V27.9844V30.7236V32.8037V35.5576V36.9346V39H45.2881H43.9111H42.5342H41.9629L41.9336 29.1709L32.5586 29.127V39H29.1162H27.7246H26.3477H25.9229V15.5771ZM51.6455 22.0371H58.3252L61.2256 32.7158L64.873 22.0371H71.0986L74.8926 32.7158L77.793 22.0371H84.4141L77.793 39H71.6553L68.0078 28.79L64.4922 39H58.3252L51.6455 22.0371ZM98.5498 22.5938L105.42 22.6084V23.8242V25.875V27.252V29.9912V32.0566V34.7959V36.1729V39.0732H98.5352L98.5205 38.5166C97.9834 38.9365 96.3477 39.0977 93.6133 39C90.8203 38.9414 88.7695 38.0527 87.4609 36.334C86.1523 34.6055 85.5811 32.7305 85.7471 30.709C85.7764 28.8535 86.2988 27.1689 87.3145 25.6553C88.3301 24.1416 90.2734 23.0234 93.1445 22.3008C95.8691 22.1152 97.6709 22.3936 98.5498 23.1357V22.5938ZM95.9863 24.1465C94.1504 24.2246 93.1982 25.6455 93.1299 28.4092V32.833C93.2764 35.5479 94.248 36.9688 96.0449 37.0957C97.8027 36.9102 98.667 36.124 98.6377 34.7373V27.0176C98.7744 25.2695 97.8906 24.3125 95.9863 24.1465ZM125.063 32.5986C124.282 36.9932 121.26 39.127 115.996 39C110.732 38.8828 107.803 37.0322 107.207 33.4482L107.163 27.7646H114.062L114.033 33.126C113.867 35.4795 114.502 36.6758 115.938 36.7148C117.383 36.7539 118.018 35.0986 117.842 31.749V15.3135H125.063V32.5986ZM126.587 30.46C127.31 25.3037 130.361 22.6035 135.742 22.3594C141.514 22.5352 144.536 25.2939 144.81 30.6357H142.744H141.47H138.291H137.017H135.112H133.208C133.12 34.1807 133.55 36.1875 134.497 36.6562C135.444 37.1152 136.382 37.0566 137.31 36.4805C138.257 35.9043 138.633 34.5908 138.438 32.54H140.84H142.114H143.389H144.663H143.389H144.663C143.794 36.0459 141.968 38.0967 139.185 38.6924C136.401 39.2881 133.789 39.1123 131.348 38.165C128.916 37.208 127.334 35.0205 126.602 31.6025L126.587 30.46ZM135.83 24.1465C134.131 24.2344 133.257 25.5479 133.208 28.0869H135.742H137.017H138.291C138.271 25.665 137.451 24.3516 135.83 24.1465ZM145.747 30.0938C146.001 27.1738 147.002 25.1328 148.75 23.9707C150.498 22.8086 152.598 22.2666 155.049 22.3447H156.133C158.809 22.4814 160.898 23.1943 162.402 24.4834C163.906 25.7627 164.761 27.6182 164.966 30.0498C165.034 33.0674 164.194 35.2549 162.446 36.6123C160.708 37.9502 158.589 38.7461 156.089 39H154.961C151.748 38.7559 149.429 37.916 148.003 36.4805C146.587 35.0645 145.835 32.9355 145.747 30.0938ZM155.371 24.3809C153.428 24.4395 152.432 25.709 152.383 28.1895V33.082C152.52 35.5039 153.535 36.7783 155.43 36.9053C157.305 36.7295 158.223 35.4258 158.184 32.9941V28.248C158.135 25.6895 157.197 24.4004 155.371 24.3809ZM173.301 24.8496C174.863 23.3262 176.709 22.4473 178.838 22.2129C183.916 21.8027 186.519 23.668 186.646 27.8086V28.5117V28.1602V27.8086V29.2148V28.5117V29.2148V32.7158V34.1221V35.5283V36.9346V39.0439H183.848H182.441H181.035H179.629H181.035H179.629V27.8086C179.639 26.334 178.613 25.5137 176.553 25.3477C175.098 25.2402 174.009 25.8262 173.286 27.1055V29.918V31.3096V34.8252V36.2314V39.0439H169.785H168.379H166.973H166.152V22.8867H168.379H169.785H171.191H172.583H171.191H173.315L173.301 24.8496ZM208.486 38.9561C208.516 40.2939 208.389 41.4609 208.105 42.457C207.822 43.4531 207.432 44.3125 206.934 45.0352C206.445 45.7578 205.884 46.3584 205.249 46.8369C204.614 47.3154 203.965 47.7012 203.301 47.9941C201.729 48.6875 199.937 49.0293 197.925 49.0195C196.489 49.0098 195.249 48.873 194.204 48.6094C193.159 48.3555 192.271 48.0234 191.538 47.6133C190.806 47.2031 190.21 46.7393 189.751 46.2217C189.302 45.7139 188.945 45.1914 188.682 44.6543C188.076 43.4043 187.861 41.9834 188.037 40.3916H194.541C194.502 41.5537 194.585 42.584 194.79 43.4824C194.878 43.8633 194.995 44.2393 195.142 44.6104C195.288 44.9814 195.479 45.3086 195.713 45.5918C195.947 45.8848 196.226 46.1191 196.548 46.2949C196.88 46.4707 197.271 46.5586 197.72 46.5586C198.228 46.5586 198.662 46.4658 199.023 46.2803C199.385 46.1045 199.688 45.8652 199.932 45.5625C200.186 45.2695 200.386 44.9326 200.532 44.5518C200.679 44.1709 200.791 43.7803 200.869 43.3799C201.045 42.4521 201.084 41.3926 200.986 40.2012L200.942 38.4287C200.405 38.8486 198.77 39.0098 196.035 38.9121C193.242 38.8535 191.191 37.9648 189.883 36.2461C188.574 34.5176 188.003 32.6426 188.169 30.6211C188.188 29.6836 188.335 28.8047 188.608 27.9844C188.882 27.1543 189.258 26.3486 189.736 25.5674C190.029 25.0889 190.381 24.6641 190.791 24.293C191.211 23.9121 191.67 23.585 192.168 23.3115C192.676 23.0283 193.213 22.7988 193.779 22.623C194.355 22.4375 194.951 22.3008 195.566 22.2129C198.291 22.0273 200.093 22.3057 200.972 23.0479V22.5059L208.486 22.4033V23.6924V25.7432V27.1201V29.8594V31.9248V34.6641V38.9561ZM198.408 24.0586C196.572 24.1367 195.62 25.5576 195.552 28.3213V32.7451C195.698 35.46 196.67 36.8809 198.467 37.0078C200.225 36.8223 201.089 36.0361 201.06 34.6494V26.9297C201.196 25.1816 200.312 24.2246 198.408 24.0586ZM216.934 30.625C215.92 30.625 214.996 30.3889 214.163 29.9167C213.329 29.4306 212.663 28.7778 212.163 27.9583C211.677 27.1389 211.434 26.2361 211.434 25.25C211.434 24.25 211.677 23.3472 212.163 22.5417C212.663 21.7222 213.329 21.0764 214.163 20.6042C214.996 20.1181 215.92 19.875 216.934 19.875C217.947 19.875 218.871 20.1181 219.704 20.6042C220.538 21.0764 221.197 21.7222 221.684 22.5417C222.184 23.3472 222.434 24.25 222.434 25.25C222.434 26.2361 222.184 27.1389 221.684 27.9583C221.197 28.7778 220.538 29.4306 219.704 29.9167C218.871 30.3889 217.947 30.625 216.934 30.625ZM212.809 25.25C212.809 26 212.996 26.6875 213.371 27.3125C213.746 27.9375 214.246 28.4375 214.871 28.8125C215.496 29.1875 216.184 29.375 216.934 29.375C217.697 29.375 218.385 29.1875 218.996 28.8125C219.621 28.4375 220.121 27.9375 220.496 27.3125C220.871 26.6875 221.059 26 221.059 25.25C221.059 24.4861 220.871 23.7986 220.496 23.1875C220.121 22.5625 219.621 22.0625 218.996 21.6875C218.385 21.3125 217.697 21.125 216.934 21.125C216.184 21.125 215.496 21.3125 214.871 21.6875C214.246 22.0625 213.746 22.5625 213.371 23.1875C212.996 23.7986 212.809 24.4861 212.809 25.25ZM215.038 27.625V22.625H217.079C217.718 22.625 218.218 22.8056 218.579 23.1667C218.941 23.5139 219.121 23.9306 219.121 24.4167C219.121 25.1389 218.802 25.6528 218.163 25.9583L219.329 27.625H217.892L216.892 26.1667H216.288V27.625H215.038ZM216.288 25.1667H217.038C217.316 25.1667 217.524 25.0972 217.663 24.9583C217.802 24.8056 217.871 24.6319 217.871 24.4375C217.871 23.9514 217.593 23.7083 217.038 23.7083H216.288V25.1667Z"/>
</mask>
<path d="M25.9229 15.5771H28.4131H29.79H31.1816H32.5586L32.6025 25.3477L41.8311 25.3623V15.5771H44.585H45.9766H47.3535H48.7305H47.3535H48.7305V18.3311V19.708V23.1504V24.5273V26.5928V27.9844V30.7236V32.8037V35.5576V36.9346V39H45.2881H43.9111H42.5342H41.9629L41.9336 29.1709L32.5586 29.127V39H29.1162H27.7246H26.3477H25.9229V15.5771ZM51.6455 22.0371H58.3252L61.2256 32.7158L64.873 22.0371H71.0986L74.8926 32.7158L77.793 22.0371H84.4141L77.793 39H71.6553L68.0078 28.79L64.4922 39H58.3252L51.6455 22.0371ZM98.5498 22.5938L105.42 22.6084V23.8242V25.875V27.252V29.9912V32.0566V34.7959V36.1729V39.0732H98.5352L98.5205 38.5166C97.9834 38.9365 96.3477 39.0977 93.6133 39C90.8203 38.9414 88.7695 38.0527 87.4609 36.334C86.1523 34.6055 85.5811 32.7305 85.7471 30.709C85.7764 28.8535 86.2988 27.1689 87.3145 25.6553C88.3301 24.1416 90.2734 23.0234 93.1445 22.3008C95.8691 22.1152 97.6709 22.3936 98.5498 23.1357V22.5938ZM95.9863 24.1465C94.1504 24.2246 93.1982 25.6455 93.1299 28.4092V32.833C93.2764 35.5479 94.248 36.9688 96.0449 37.0957C97.8027 36.9102 98.667 36.124 98.6377 34.7373V27.0176C98.7744 25.2695 97.8906 24.3125 95.9863 24.1465ZM125.063 32.5986C124.282 36.9932 121.26 39.127 115.996 39C110.732 38.8828 107.803 37.0322 107.207 33.4482L107.163 27.7646H114.062L114.033 33.126C113.867 35.4795 114.502 36.6758 115.938 36.7148C117.383 36.7539 118.018 35.0986 117.842 31.749V15.3135H125.063V32.5986ZM126.587 30.46C127.31 25.3037 130.361 22.6035 135.742 22.3594C141.514 22.5352 144.536 25.2939 144.81 30.6357H142.744H141.47H138.291H137.017H135.112H133.208C133.12 34.1807 133.55 36.1875 134.497 36.6562C135.444 37.1152 136.382 37.0566 137.31 36.4805C138.257 35.9043 138.633 34.5908 138.438 32.54H140.84H142.114H143.389H144.663H143.389H144.663C143.794 36.0459 141.968 38.0967 139.185 38.6924C136.401 39.2881 133.789 39.1123 131.348 38.165C128.916 37.208 127.334 35.0205 126.602 31.6025L126.587 30.46ZM135.83 24.1465C134.131 24.2344 133.257 25.5479 133.208 28.0869H135.742H137.017H138.291C138.271 25.665 137.451 24.3516 135.83 24.1465ZM145.747 30.0938C146.001 27.1738 147.002 25.1328 148.75 23.9707C150.498 22.8086 152.598 22.2666 155.049 22.3447H156.133C158.809 22.4814 160.898 23.1943 162.402 24.4834C163.906 25.7627 164.761 27.6182 164.966 30.0498C165.034 33.0674 164.194 35.2549 162.446 36.6123C160.708 37.9502 158.589 38.7461 156.089 39H154.961C151.748 38.7559 149.429 37.916 148.003 36.4805C146.587 35.0645 145.835 32.9355 145.747 30.0938ZM155.371 24.3809C153.428 24.4395 152.432 25.709 152.383 28.1895V33.082C152.52 35.5039 153.535 36.7783 155.43 36.9053C157.305 36.7295 158.223 35.4258 158.184 32.9941V28.248C158.135 25.6895 157.197 24.4004 155.371 24.3809ZM173.301 24.8496C174.863 23.3262 176.709 22.4473 178.838 22.2129C183.916 21.8027 186.519 23.668 186.646 27.8086V28.5117V28.1602V27.8086V29.2148V28.5117V29.2148V32.7158V34.1221V35.5283V36.9346V39.0439H183.848H182.441H181.035H179.629H181.035H179.629V27.8086C179.639 26.334 178.613 25.5137 176.553 25.3477C175.098 25.2402 174.009 25.8262 173.286 27.1055V29.918V31.3096V34.8252V36.2314V39.0439H169.785H168.379H166.973H166.152V22.8867H168.379H169.785H171.191H172.583H171.191H173.315L173.301 24.8496ZM208.486 38.9561C208.516 40.2939 208.389 41.4609 208.105 42.457C207.822 43.4531 207.432 44.3125 206.934 45.0352C206.445 45.7578 205.884 46.3584 205.249 46.8369C204.614 47.3154 203.965 47.7012 203.301 47.9941C201.729 48.6875 199.937 49.0293 197.925 49.0195C196.489 49.0098 195.249 48.873 194.204 48.6094C193.159 48.3555 192.271 48.0234 191.538 47.6133C190.806 47.2031 190.21 46.7393 189.751 46.2217C189.302 45.7139 188.945 45.1914 188.682 44.6543C188.076 43.4043 187.861 41.9834 188.037 40.3916H194.541C194.502 41.5537 194.585 42.584 194.79 43.4824C194.878 43.8633 194.995 44.2393 195.142 44.6104C195.288 44.9814 195.479 45.3086 195.713 45.5918C195.947 45.8848 196.226 46.1191 196.548 46.2949C196.88 46.4707 197.271 46.5586 197.72 46.5586C198.228 46.5586 198.662 46.4658 199.023 46.2803C199.385 46.1045 199.688 45.8652 199.932 45.5625C200.186 45.2695 200.386 44.9326 200.532 44.5518C200.679 44.1709 200.791 43.7803 200.869 43.3799C201.045 42.4521 201.084 41.3926 200.986 40.2012L200.942 38.4287C200.405 38.8486 198.77 39.0098 196.035 38.9121C193.242 38.8535 191.191 37.9648 189.883 36.2461C188.574 34.5176 188.003 32.6426 188.169 30.6211C188.188 29.6836 188.335 28.8047 188.608 27.9844C188.882 27.1543 189.258 26.3486 189.736 25.5674C190.029 25.0889 190.381 24.6641 190.791 24.293C191.211 23.9121 191.67 23.585 192.168 23.3115C192.676 23.0283 193.213 22.7988 193.779 22.623C194.355 22.4375 194.951 22.3008 195.566 22.2129C198.291 22.0273 200.093 22.3057 200.972 23.0479V22.5059L208.486 22.4033V23.6924V25.7432V27.1201V29.8594V31.9248V34.6641V38.9561ZM198.408 24.0586C196.572 24.1367 195.62 25.5576 195.552 28.3213V32.7451C195.698 35.46 196.67 36.8809 198.467 37.0078C200.225 36.8223 201.089 36.0361 201.06 34.6494V26.9297C201.196 25.1816 200.312 24.2246 198.408 24.0586ZM216.934 30.625C215.92 30.625 214.996 30.3889 214.163 29.9167C213.329 29.4306 212.663 28.7778 212.163 27.9583C211.677 27.1389 211.434 26.2361 211.434 25.25C211.434 24.25 211.677 23.3472 212.163 22.5417C212.663 21.7222 213.329 21.0764 214.163 20.6042C214.996 20.1181 215.92 19.875 216.934 19.875C217.947 19.875 218.871 20.1181 219.704 20.6042C220.538 21.0764 221.197 21.7222 221.684 22.5417C222.184 23.3472 222.434 24.25 222.434 25.25C222.434 26.2361 222.184 27.1389 221.684 27.9583C221.197 28.7778 220.538 29.4306 219.704 29.9167C218.871 30.3889 217.947 30.625 216.934 30.625ZM212.809 25.25C212.809 26 212.996 26.6875 213.371 27.3125C213.746 27.9375 214.246 28.4375 214.871 28.8125C215.496 29.1875 216.184 29.375 216.934 29.375C217.697 29.375 218.385 29.1875 218.996 28.8125C219.621 28.4375 220.121 27.9375 220.496 27.3125C220.871 26.6875 221.059 26 221.059 25.25C221.059 24.4861 220.871 23.7986 220.496 23.1875C220.121 22.5625 219.621 22.0625 218.996 21.6875C218.385 21.3125 217.697 21.125 216.934 21.125C216.184 21.125 215.496 21.3125 214.871 21.6875C214.246 22.0625 213.746 22.5625 213.371 23.1875C212.996 23.7986 212.809 24.4861 212.809 25.25ZM215.038 27.625V22.625H217.079C217.718 22.625 218.218 22.8056 218.579 23.1667C218.941 23.5139 219.121 23.9306 219.121 24.4167C219.121 25.1389 218.802 25.6528 218.163 25.9583L219.329 27.625H217.892L216.892 26.1667H216.288V27.625H215.038ZM216.288 25.1667H217.038C217.316 25.1667 217.524 25.0972 217.663 24.9583C217.802 24.8056 217.871 24.6319 217.871 24.4375C217.871 23.9514 217.593 23.7083 217.038 23.7083H216.288V25.1667Z" fill="white"/>
<path d="M25.9229 15.5771V14.5771H24.9229V15.5771H25.9229ZM32.5586 15.5771L33.5586 15.5727L33.5541 14.5771H32.5586V15.5771ZM32.6025 25.3477L31.6025 25.3522L31.607 26.3461L32.601 26.3477L32.6025 25.3477ZM41.8311 25.3623L41.8295 26.3623L42.8311 26.3639V25.3623H41.8311ZM41.8311 15.5771V14.5771H40.8311V15.5771H41.8311ZM48.7305 15.5771H49.7305V14.5771H48.7305V15.5771ZM48.7305 39V40H49.7305V39H48.7305ZM41.9629 39L40.9629 39.003L40.9659 40H41.9629V39ZM41.9336 29.1709L42.9336 29.1679L42.9306 28.1756L41.9383 28.1709L41.9336 29.1709ZM32.5586 29.127L32.5633 28.127L31.5586 28.1223V29.127H32.5586ZM32.5586 39V40H33.5586V39H32.5586ZM25.9229 39H24.9229V40H25.9229V39ZM25.9229 15.5771V16.5771H28.4131V15.5771V14.5771H25.9229V15.5771ZM28.4131 15.5771V16.5771H29.79V15.5771V14.5771H28.4131V15.5771ZM29.79 15.5771V16.5771H31.1816V15.5771V14.5771H29.79V15.5771ZM31.1816 15.5771V16.5771H32.5586V15.5771V14.5771H31.1816V15.5771ZM32.5586 15.5771L31.5586 15.5816L31.6025 25.3522L32.6025 25.3477L33.6025 25.3432L33.5586 15.5727L32.5586 15.5771ZM32.6025 25.3477L32.601 26.3477L41.8295 26.3623L41.8311 25.3623L41.8326 24.3623L32.6041 24.3477L32.6025 25.3477ZM41.8311 25.3623H42.8311V15.5771H41.8311H40.8311V25.3623H41.8311ZM41.8311 15.5771V16.5771H44.585V15.5771V14.5771H41.8311V15.5771ZM44.585 15.5771V16.5771H45.9766V15.5771V14.5771H44.585V15.5771ZM45.9766 15.5771V16.5771H47.3535V15.5771V14.5771H45.9766V15.5771ZM47.3535 15.5771V16.5771H48.7305V15.5771V14.5771H47.3535V15.5771ZM48.7305 15.5771V14.5771H47.3535V15.5771V16.5771H48.7305V15.5771ZM47.3535 15.5771V16.5771H48.7305V15.5771V14.5771H47.3535V15.5771ZM48.7305 15.5771H47.7305V18.3311H48.7305H49.7305V15.5771H48.7305ZM48.7305 18.3311H47.7305V19.708H48.7305H49.7305V18.3311H48.7305ZM48.7305 19.708H47.7305V23.1504H48.7305H49.7305V19.708H48.7305ZM48.7305 23.1504H47.7305V24.5273H48.7305H49.7305V23.1504H48.7305ZM48.7305 24.5273H47.7305V26.5928H48.7305H49.7305V24.5273H48.7305ZM48.7305 26.5928H47.7305V27.9844H48.7305H49.7305V26.5928H48.7305ZM48.7305 27.9844H47.7305V30.7236H48.7305H49.7305V27.9844H48.7305ZM48.7305 30.7236H47.7305V32.8037H48.7305H49.7305V30.7236H48.7305ZM48.7305 32.8037H47.7305V35.5576H48.7305H49.7305V32.8037H48.7305ZM48.7305 35.5576H47.7305V36.9346H48.7305H49.7305V35.5576H48.7305ZM48.7305 36.9346H47.7305V39H48.7305H49.7305V36.9346H48.7305ZM48.7305 39V38H45.2881V39V40H48.7305V39ZM45.2881 39V38H43.9111V39V40H45.2881V39ZM43.9111 39V38H42.5342V39V40H43.9111V39ZM42.5342 39V38H41.9629V39V40H42.5342V39ZM41.9629 39L42.9629 38.997L42.9336 29.1679L41.9336 29.1709L40.9336 29.1739L40.9629 39.003L41.9629 39ZM41.9336 29.1709L41.9383 28.1709L32.5633 28.127L32.5586 29.127L32.5539 30.1269L41.9289 30.1709L41.9336 29.1709ZM32.5586 29.127H31.5586V39H32.5586H33.5586V29.127H32.5586ZM32.5586 39V38H29.1162V39V40H32.5586V39ZM29.1162 39V38H27.7246V39V40H29.1162V39ZM27.7246 39V38H26.3477V39V40H27.7246V39ZM26.3477 39V38H25.9229V39V40H26.3477V39ZM25.9229 39H26.9229V15.5771H25.9229H24.9229V39H25.9229ZM51.6455 22.0371V21.0371H50.177L50.715 22.4035L51.6455 22.0371ZM58.3252 22.0371L59.2902 21.775L59.0898 21.0371H58.3252V22.0371ZM61.2256 32.7158L60.2605 32.9779L61.1164 36.1292L62.1719 33.039L61.2256 32.7158ZM64.873 22.0371V21.0371H64.1579L63.9267 21.7139L64.873 22.0371ZM71.0986 22.0371L72.0409 21.7023L71.8046 21.0371H71.0986V22.0371ZM74.8926 32.7158L73.9503 33.0506L75.0201 36.0617L75.8576 32.9779L74.8926 32.7158ZM77.793 22.0371V21.0371H77.0283L76.8279 21.775L77.793 22.0371ZM84.4141 22.0371L85.3456 22.4007L85.8779 21.0371H84.4141V22.0371ZM77.793 39V40H78.4761L78.7245 39.3636L77.793 39ZM71.6553 39L70.7136 39.3364L70.9506 40H71.6553V39ZM68.0078 28.79L68.9495 28.4536L67.9904 25.769L67.0623 28.4645L68.0078 28.79ZM64.4922 39V40H65.2055L65.4377 39.3256L64.4922 39ZM58.3252 39L57.3947 39.3664L57.6442 40H58.3252V39ZM51.6455 22.0371V23.0371H58.3252V22.0371V21.0371H51.6455V22.0371ZM58.3252 22.0371L57.3602 22.2992L60.2605 32.9779L61.2256 32.7158L62.1906 32.4537L59.2902 21.775L58.3252 22.0371ZM61.2256 32.7158L62.1719 33.039L65.8194 22.3603L64.873 22.0371L63.9267 21.7139L60.2793 32.3926L61.2256 32.7158ZM64.873 22.0371V23.0371H71.0986V22.0371V21.0371H64.873V22.0371ZM71.0986 22.0371L70.1563 22.3719L73.9503 33.0506L74.8926 32.7158L75.8349 32.381L72.0409 21.7023L71.0986 22.0371ZM74.8926 32.7158L75.8576 32.9779L78.758 22.2992L77.793 22.0371L76.8279 21.775L73.9275 32.4537L74.8926 32.7158ZM77.793 22.0371V23.0371H84.4141V22.0371V21.0371H77.793V22.0371ZM84.4141 22.0371L83.4825 21.6735L76.8614 38.6364L77.793 39L78.7245 39.3636L85.3456 22.4007L84.4141 22.0371ZM77.793 39V38H71.6553V39V40H77.793V39ZM71.6553 39L72.597 38.6636L68.9495 28.4536L68.0078 28.79L67.0661 29.1265L70.7136 39.3364L71.6553 39ZM68.0078 28.79L67.0623 28.4645L63.5467 38.6744L64.4922 39L65.4377 39.3256L68.9533 29.1156L68.0078 28.79ZM64.4922 39V38H58.3252V39V40H64.4922V39ZM58.3252 39L59.2557 38.6336L52.576 21.6707L51.6455 22.0371L50.715 22.4035L57.3947 39.3664L58.3252 39ZM98.5498 22.5938L98.5519 21.5938L97.5498 21.5916V22.5938H98.5498ZM105.42 22.6084H106.42V21.6105L105.422 21.6084L105.42 22.6084ZM105.42 39.0732V40.0732H106.42V39.0732H105.42ZM98.5352 39.0732L97.5355 39.0995L97.5611 40.0732H98.5352V39.0732ZM98.5205 38.5166L99.5202 38.4903L99.468 36.5065L97.9046 37.7288L98.5205 38.5166ZM93.6133 39L93.649 38.0006L93.6416 38.0004L93.6343 38.0002L93.6133 39ZM87.4609 36.334L86.6636 36.9376L86.6653 36.9398L87.4609 36.334ZM85.7471 30.709L86.7437 30.7908L86.7464 30.7579L86.7469 30.7248L85.7471 30.709ZM93.1445 22.3008L93.0766 21.3031L92.9873 21.3092L92.9004 21.331L93.1445 22.3008ZM98.5498 23.1357L97.9046 23.8998L99.5498 25.289V23.1357H98.5498ZM95.9863 24.1465L96.0732 23.1503L96.0086 23.1446L95.9438 23.1474L95.9863 24.1465ZM93.1299 28.4092L92.1302 28.3845L92.1299 28.3968V28.4092H93.1299ZM93.1299 32.833H92.1299V32.86L92.1313 32.8869L93.1299 32.833ZM96.0449 37.0957L95.9744 38.0932L96.0623 38.0994L96.1499 38.0902L96.0449 37.0957ZM98.6377 34.7373H97.6377V34.7479L97.6379 34.7584L98.6377 34.7373ZM98.6377 27.0176L97.6407 26.9396L97.6377 26.9785V27.0176H98.6377ZM98.5498 22.5938L98.5477 23.5937L105.418 23.6084L105.42 22.6084L105.422 21.6084L98.5519 21.5938L98.5498 22.5938ZM105.42 22.6084H104.42V23.8242H105.42H106.42V22.6084H105.42ZM105.42 23.8242H104.42V25.875H105.42H106.42V23.8242H105.42ZM105.42 25.875H104.42V27.252H105.42H106.42V25.875H105.42ZM105.42 27.252H104.42V29.9912H105.42H106.42V27.252H105.42ZM105.42 29.9912H104.42V32.0566H105.42H106.42V29.9912H105.42ZM105.42 32.0566H104.42V34.7959H105.42H106.42V32.0566H105.42ZM105.42 34.7959H104.42V36.1729H105.42H106.42V34.7959H105.42ZM105.42 36.1729H104.42V39.0732H105.42H106.42V36.1729H105.42ZM105.42 39.0732V38.0732H98.5352V39.0732V40.0732H105.42V39.0732ZM98.5352 39.0732L99.5348 39.0469L99.5202 38.4903L98.5205 38.5166L97.5209 38.5429L97.5355 39.0995L98.5352 39.0732ZM98.5205 38.5166L97.9046 37.7288C97.9233 37.7142 97.8686 37.7594 97.6533 37.817C97.4522 37.8707 97.1699 37.9201 96.7928 37.9572C96.0389 38.0315 94.9967 38.0488 93.649 38.0006L93.6133 39L93.5776 39.9994C94.9643 40.0489 96.1071 40.0344 96.9889 39.9476C97.4297 39.9042 97.8279 39.8406 98.17 39.7491C98.4979 39.6614 98.8492 39.529 99.1364 39.3044L98.5205 38.5166ZM93.6133 39L93.6343 38.0002C91.0491 37.946 89.3288 37.1365 88.2566 35.7282L87.4609 36.334L86.6653 36.9398C88.2103 38.9689 90.5915 39.9368 93.5923 39.9998L93.6133 39ZM87.4609 36.334L88.2582 35.7304C87.087 34.1833 86.5993 32.5493 86.7437 30.7908L85.7471 30.709L84.7504 30.6271C84.5628 32.9116 85.2177 35.0276 86.6636 36.9376L87.4609 36.334ZM85.7471 30.709L86.7469 30.7248C86.7733 29.0586 87.2388 27.5628 88.1449 26.2124L87.3145 25.6553L86.4841 25.0981C85.3588 26.7751 84.7795 28.6484 84.7472 30.6932L85.7471 30.709ZM87.3145 25.6553L88.1449 26.2124C88.959 24.9991 90.6163 23.9683 93.3886 23.2705L93.1445 22.3008L92.9004 21.331C89.9306 22.0785 87.7012 23.2841 86.4841 25.0981L87.3145 25.6553ZM93.1445 22.3008L93.2125 23.2985C94.5337 23.2085 95.5852 23.2348 96.3866 23.3586C97.2025 23.4847 97.6652 23.6976 97.9046 23.8998L98.5498 23.1357L99.195 22.3717C98.5555 21.8317 97.6778 21.5344 96.692 21.3821C95.6917 21.2276 94.48 21.2075 93.0766 21.3031L93.1445 22.3008ZM98.5498 23.1357H99.5498V22.5938H98.5498H97.5498V23.1357H98.5498ZM95.9863 24.1465L95.9438 23.1474C94.7352 23.1988 93.7327 23.7169 93.0645 24.7141C92.4362 25.6517 92.1664 26.9188 92.1302 28.3845L93.1299 28.4092L94.1296 28.4339C94.1617 27.1359 94.4022 26.3107 94.726 25.8274C95.0099 25.4037 95.4015 25.1723 96.0288 25.1456L95.9863 24.1465ZM93.1299 28.4092H92.1299V32.833H93.1299H94.1299V28.4092H93.1299ZM93.1299 32.833L92.1313 32.8869C92.2092 34.3306 92.5103 35.574 93.1431 36.4993C93.8103 37.475 94.7878 38.0094 95.9744 38.0932L96.0449 37.0957L96.1154 36.0982C95.5051 36.0551 95.0984 35.8155 94.794 35.3703C94.455 34.8747 94.197 34.0502 94.1284 32.7791L93.1299 32.833ZM96.0449 37.0957L96.1499 38.0902C97.1378 37.9859 98.0327 37.6995 98.6844 37.1067C99.3706 36.4825 99.657 35.6391 99.6375 34.7162L98.6377 34.7373L97.6379 34.7584C97.6477 35.2223 97.5166 35.4653 97.3386 35.6272C97.126 35.8206 96.7098 36.02 95.9399 36.1012L96.0449 37.0957ZM98.6377 34.7373H99.6377V27.0176H98.6377H97.6377V34.7373H98.6377ZM98.6377 27.0176L99.6347 27.0956C99.7169 26.044 99.5017 25.0571 98.812 24.3103C98.1371 23.5795 97.1594 23.245 96.0732 23.1503L95.9863 24.1465L95.8995 25.1427C96.7176 25.214 97.1339 25.441 97.3427 25.6672C97.5369 25.8775 97.6952 26.2431 97.6407 26.9396L98.6377 27.0176ZM125.063 32.5986L126.048 32.7737L126.063 32.6868V32.5986H125.063ZM115.996 39L116.02 38.0003L116.018 38.0002L115.996 39ZM107.207 33.4482L106.207 33.456L106.208 33.5346L106.221 33.6122L107.207 33.4482ZM107.163 27.7646V26.7646H106.155L106.163 27.7724L107.163 27.7646ZM114.062 27.7646L115.062 27.7701L115.068 26.7646H114.062V27.7646ZM114.033 33.126L115.031 33.1963L115.033 33.1639L115.033 33.1314L114.033 33.126ZM115.938 36.7148L115.91 37.7145L115.91 37.7145L115.938 36.7148ZM117.842 31.749H116.842V31.7752L116.843 31.8014L117.842 31.749ZM117.842 15.3135V14.3135H116.842V15.3135H117.842ZM125.063 15.3135H126.063V14.3135H125.063V15.3135ZM125.063 32.5986L124.079 32.4236C123.724 34.4186 122.887 35.7934 121.634 36.6779C120.359 37.5783 118.525 38.0607 116.02 38.0003L115.996 39L115.972 39.9997C118.731 40.0662 121.04 39.5452 122.787 38.3118C124.557 37.0625 125.621 35.1732 126.048 32.7737L125.063 32.5986ZM115.996 39L116.018 38.0002C113.481 37.9438 111.637 37.4692 110.385 36.6787C109.174 35.9139 108.447 34.8105 108.193 33.2843L107.207 33.4482L106.221 33.6122C106.563 35.67 107.598 37.2839 109.317 38.3696C110.995 39.4297 113.248 39.9391 115.974 39.9998L115.996 39ZM107.207 33.4482L108.207 33.4405L108.163 27.7569L107.163 27.7646L106.163 27.7724L106.207 33.456L107.207 33.4482ZM107.163 27.7646V28.7646H114.062V27.7646V26.7646H107.163V27.7646ZM114.062 27.7646L113.063 27.7592L113.033 33.1205L114.033 33.126L115.033 33.1314L115.062 27.7701L114.062 27.7646ZM114.033 33.126L113.036 33.0556C112.948 34.2977 113.053 35.4115 113.501 36.257C114 37.1964 114.859 37.6859 115.91 37.7145L115.938 36.7148L115.965 35.7152C115.58 35.7048 115.404 35.5765 115.268 35.3196C115.082 34.9689 114.952 34.3077 115.031 33.1963L114.033 33.126ZM115.938 36.7148L115.91 37.7145C116.479 37.7298 117.022 37.5743 117.483 37.2161C117.929 36.8698 118.229 36.3879 118.431 35.8607C118.826 34.832 118.93 33.4086 118.84 31.6966L117.842 31.749L116.843 31.8014C116.929 33.4391 116.804 34.5181 116.564 35.1446C116.449 35.4451 116.33 35.5791 116.256 35.6368C116.197 35.6826 116.119 35.7194 115.965 35.7152L115.938 36.7148ZM117.842 31.749H118.842V15.3135H117.842H116.842V31.749H117.842ZM117.842 15.3135V16.3135H125.063V15.3135V14.3135H117.842V15.3135ZM125.063 15.3135H124.063V32.5986H125.063H126.063V15.3135H125.063ZM126.587 30.46L125.597 30.3212L125.586 30.3966L125.587 30.4728L126.587 30.46ZM135.742 22.3594L135.773 21.3598L135.735 21.3587L135.697 21.3604L135.742 22.3594ZM144.81 30.6357V31.6357H145.862L145.808 30.5846L144.81 30.6357ZM133.208 30.6357V29.6357H132.232L132.208 30.611L133.208 30.6357ZM134.497 36.6562L134.054 37.5525L134.061 37.5562L134.497 36.6562ZM137.31 36.4805L136.79 35.6261L136.782 35.631L137.31 36.4805ZM138.438 32.54V31.54H137.338L137.442 32.6348L138.438 32.54ZM144.663 32.54L145.634 32.7807L145.941 31.54H144.663V32.54ZM131.348 38.165L130.981 39.0956L130.986 39.0973L131.348 38.165ZM126.602 31.6025L125.602 31.6154L125.603 31.7148L125.624 31.8121L126.602 31.6025ZM135.83 24.1465L135.956 23.1544L135.867 23.1432L135.778 23.1478L135.83 24.1465ZM133.208 28.0869L132.208 28.0677L132.189 29.0869H133.208V28.0869ZM138.291 28.0869V29.0869H139.299L139.291 28.0788L138.291 28.0869ZM126.587 30.46L127.577 30.5988C127.915 28.1894 128.778 26.469 130.08 25.3166C131.387 24.1605 133.252 23.4734 135.788 23.3583L135.742 22.3594L135.697 21.3604C132.852 21.4895 130.5 22.2745 128.755 23.8187C127.006 25.3664 125.982 27.5743 125.597 30.3212L126.587 30.46ZM135.742 22.3594L135.712 23.3589C138.456 23.4425 140.389 24.1359 141.663 25.2989C142.926 26.4512 143.683 28.1951 143.811 30.6869L144.81 30.6357L145.808 30.5846C145.662 27.7346 144.772 25.4282 143.012 23.8217C141.264 22.226 138.8 21.452 135.773 21.3598L135.742 22.3594ZM144.81 30.6357V29.6357H142.744V30.6357V31.6357H144.81V30.6357ZM142.744 30.6357V29.6357H141.47V30.6357V31.6357H142.744V30.6357ZM141.47 30.6357V29.6357H138.291V30.6357V31.6357H141.47V30.6357ZM138.291 30.6357V29.6357H137.017V30.6357V31.6357H138.291V30.6357ZM137.017 30.6357V29.6357H135.112V30.6357V31.6357H137.017V30.6357ZM135.112 30.6357V29.6357H133.208V30.6357V31.6357H135.112V30.6357ZM133.208 30.6357L132.208 30.611C132.164 32.414 132.248 33.8927 132.487 35.0089C132.71 36.0542 133.136 37.0983 134.054 37.5525L134.497 36.6562L134.941 35.76C134.911 35.7455 134.648 35.5517 134.442 34.5902C134.252 33.6996 134.165 32.4024 134.208 30.6605L133.208 30.6357ZM134.497 36.6562L134.061 37.5562C135.331 38.1714 136.631 38.0788 137.837 37.33L137.31 36.4805L136.782 35.631C136.132 36.0344 135.558 36.0591 134.933 35.7563L134.497 36.6562ZM137.31 36.4805L137.829 37.3348C139.315 36.4309 139.633 34.5449 139.433 32.4452L138.438 32.54L137.442 32.6348C137.633 34.6368 137.198 35.3777 136.79 35.6261L137.31 36.4805ZM138.438 32.54V33.54H140.84V32.54V31.54H138.438V32.54ZM140.84 32.54V33.54H142.114V32.54V31.54H140.84V32.54ZM142.114 32.54V33.54H143.389V32.54V31.54H142.114V32.54ZM143.389 32.54V33.54H144.663V32.54V31.54H143.389V32.54ZM144.663 32.54V31.54H143.389V32.54V33.54H144.663V32.54ZM143.389 32.54V33.54H144.663V32.54V31.54H143.389V32.54ZM144.663 32.54L143.692 32.2994C142.886 35.5536 141.278 37.2217 138.975 37.7145L139.185 38.6924L139.394 39.6702C142.658 38.9716 144.702 36.5382 145.634 32.7807L144.663 32.54ZM139.185 38.6924L138.975 37.7145C136.365 38.2731 133.953 38.1033 131.709 37.2328L131.348 38.165L130.986 39.0973C133.625 40.1213 136.437 40.3031 139.394 39.6702L139.185 38.6924ZM131.348 38.165L131.714 37.2345C129.695 36.4399 128.268 34.6059 127.579 31.393L126.602 31.6025L125.624 31.8121C126.4 35.4351 128.137 37.9761 130.981 39.0956L131.348 38.165ZM126.602 31.6025L127.601 31.5897L127.587 30.4471L126.587 30.46L125.587 30.4728L125.602 31.6154L126.602 31.6025ZM135.83 24.1465L135.778 23.1478C134.642 23.2066 133.695 23.7002 133.068 24.6435C132.479 25.5284 132.234 26.7131 132.208 28.0677L133.208 28.0869L134.208 28.1061C134.231 26.9217 134.447 26.1801 134.733 25.7515C134.979 25.3813 135.319 25.1742 135.882 25.1451L135.83 24.1465ZM133.208 28.0869V29.0869H135.742V28.0869V27.0869H133.208V28.0869ZM135.742 28.0869V29.0869H137.017V28.0869V27.0869H135.742V28.0869ZM137.017 28.0869V29.0869H138.291V28.0869V27.0869H137.017V28.0869ZM138.291 28.0869L139.291 28.0788C139.28 26.7786 139.058 25.6338 138.509 24.7557C137.93 23.8283 137.045 23.2923 135.956 23.1544L135.83 24.1465L135.705 25.1386C136.236 25.2058 136.572 25.429 136.813 25.8151C137.085 26.2505 137.282 26.9733 137.291 28.095L138.291 28.0869ZM145.747 30.0938L144.751 30.0071L144.746 30.0658L144.748 30.1247L145.747 30.0938ZM155.049 22.3447L155.017 23.3442L155.033 23.3447H155.049V22.3447ZM156.133 22.3447L156.184 21.346L156.158 21.3447H156.133V22.3447ZM162.402 24.4834L161.752 25.2427L161.754 25.2451L162.402 24.4834ZM164.966 30.0498L165.966 30.0272L165.965 29.9964L165.962 29.9658L164.966 30.0498ZM162.446 36.6123L163.056 37.4048L163.06 37.4021L162.446 36.6123ZM156.089 39V40H156.14L156.19 39.9949L156.089 39ZM154.961 39L154.885 39.9971L154.923 40H154.961V39ZM148.003 36.4805L148.712 35.7758L148.71 35.7734L148.003 36.4805ZM155.371 24.3809L155.382 23.3809L155.361 23.3807L155.341 23.3813L155.371 24.3809ZM152.383 28.1895L151.383 28.1698L151.383 28.1796V28.1895H152.383ZM152.383 33.082H151.383V33.1102L151.384 33.1384L152.383 33.082ZM155.43 36.9053L155.363 37.903L155.443 37.9084L155.523 37.9009L155.43 36.9053ZM158.184 32.9941H157.184V33.0022L157.184 33.0102L158.184 32.9941ZM158.184 28.248H159.184V28.2385L159.183 28.229L158.184 28.248ZM145.747 30.0938L146.743 30.1804C146.982 27.4369 147.899 25.7375 149.304 24.8035L148.75 23.9707L148.196 23.1379C146.105 24.5281 145.02 26.9108 144.751 30.0071L145.747 30.0938ZM148.75 23.9707L149.304 24.8035C150.851 23.7749 152.738 23.2716 155.017 23.3442L155.049 22.3447L155.081 21.3452C152.458 21.2616 150.145 21.8423 148.196 23.1379L148.75 23.9707ZM155.049 22.3447V23.3447H156.133V22.3447V21.3447H155.049V22.3447ZM156.133 22.3447L156.082 23.3434C158.614 23.4728 160.466 24.1409 161.752 25.2427L162.402 24.4834L163.053 23.7241C161.331 22.2478 159.003 21.4901 156.184 21.346L156.133 22.3447ZM162.402 24.4834L161.754 25.2451C163.012 26.3149 163.781 27.8995 163.969 30.1338L164.966 30.0498L165.962 29.9658C165.741 27.3368 164.8 25.2105 163.05 23.7217L162.402 24.4834ZM164.966 30.0498L163.966 30.0725C164.03 32.8975 163.247 34.7247 161.833 35.8225L162.446 36.6123L163.06 37.4021C165.142 35.7851 166.038 33.2373 165.966 30.0272L164.966 30.0498ZM162.446 36.6123L161.836 35.8198C160.266 37.0284 158.33 37.7672 155.988 38.0051L156.089 39L156.19 39.9949C158.848 39.725 161.15 38.8719 163.056 37.4048L162.446 36.6123ZM156.089 39V38H154.961V39V40H156.089V39ZM154.961 39L155.037 38.0029C151.929 37.7667 149.894 36.9651 148.712 35.7758L148.003 36.4805L147.293 37.1852C148.964 38.867 151.567 39.745 154.885 39.9971L154.961 39ZM148.003 36.4805L148.71 35.7734C147.538 34.6008 146.83 32.757 146.747 30.0628L145.747 30.0938L144.748 30.1247C144.84 33.114 145.636 35.5281 147.296 37.1876L148.003 36.4805ZM155.371 24.3809L155.341 23.3813C154.14 23.4175 153.098 23.8436 152.38 24.7597C151.693 25.6351 151.41 26.8223 151.383 28.1698L152.383 28.1895L153.383 28.2091C153.405 27.0761 153.644 26.3883 153.953 25.9942C154.231 25.6407 154.659 25.4028 155.401 25.3804L155.371 24.3809ZM152.383 28.1895H151.383V33.082H152.383H153.383V28.1895H152.383ZM152.383 33.082L151.384 33.1384C151.459 34.4604 151.779 35.6167 152.465 36.4775C153.177 37.3714 154.186 37.8242 155.363 37.903L155.43 36.9053L155.497 35.9075C154.779 35.8594 154.332 35.6115 154.029 35.231C153.699 34.8174 153.443 34.1255 153.381 33.0257L152.383 33.082ZM155.43 36.9053L155.523 37.9009C156.694 37.7912 157.684 37.3064 158.342 36.3714C158.972 35.4771 159.205 34.3009 159.183 32.9781L158.184 32.9941L157.184 33.0102C157.202 34.119 156.995 34.8105 156.707 35.2199C156.447 35.5886 156.041 35.8436 155.336 35.9096L155.43 36.9053ZM158.184 32.9941H159.184V28.248H158.184H157.184V32.9941H158.184ZM158.184 28.248L159.183 28.229C159.157 26.8586 158.895 25.6572 158.253 24.7741C157.569 23.8341 156.558 23.3935 155.382 23.3809L155.371 24.3809L155.36 25.3808C156.01 25.3877 156.381 25.6014 156.635 25.9505C156.93 26.3565 157.161 27.0789 157.184 28.2671L158.184 28.248ZM173.301 24.8496L172.301 24.8421L172.283 27.2387L173.999 25.5656L173.301 24.8496ZM178.838 22.2129L178.757 21.2161L178.743 21.2173L178.728 21.2189L178.838 22.2129ZM186.646 27.8086H187.646V27.7933L187.645 27.7779L186.646 27.8086ZM186.646 39.0439V40.0439H187.646V39.0439H186.646ZM179.629 39.0439H178.629V40.0439H179.629V39.0439ZM179.629 27.8086L178.629 27.802V27.8086H179.629ZM176.553 25.3477L176.633 24.3509L176.626 24.3504L176.553 25.3477ZM173.286 27.1055L172.415 26.6136L172.286 26.8426V27.1055H173.286ZM173.286 39.0439V40.0439H174.286V39.0439H173.286ZM166.152 39.0439H165.152V40.0439H166.152V39.0439ZM166.152 22.8867V21.8867H165.152V22.8867H166.152ZM173.315 22.8867L174.315 22.8942L174.323 21.8867H173.315V22.8867ZM173.301 24.8496L173.999 25.5656C175.405 24.1947 177.045 23.4164 178.947 23.2069L178.838 22.2129L178.728 21.2189C176.373 21.4782 174.322 22.4576 172.603 24.1336L173.301 24.8496ZM178.838 22.2129L178.918 23.2096C181.353 23.013 182.992 23.3833 184.016 24.117C184.992 24.8169 185.589 25.9804 185.646 27.8392L186.646 27.8086L187.645 27.7779C187.575 25.4961 186.807 23.6568 185.181 22.4914C183.602 21.3599 181.401 21.0026 178.757 21.2161L178.838 22.2129ZM186.646 27.8086H185.646V28.5117H186.646H187.646V27.8086H186.646ZM186.646 28.5117H187.646V28.1602H186.646H185.646V28.5117H186.646ZM186.646 28.1602H187.646V27.8086H186.646H185.646V28.1602H186.646ZM186.646 27.8086H185.646V29.2148H186.646H187.646V27.8086H186.646ZM186.646 29.2148H187.646V28.5117H186.646H185.646V29.2148H186.646ZM186.646 28.5117H185.646V29.2148H186.646H187.646V28.5117H186.646ZM186.646 29.2148H185.646V32.7158H186.646H187.646V29.2148H186.646ZM186.646 32.7158H185.646V34.1221H186.646H187.646V32.7158H186.646ZM186.646 34.1221H185.646V35.5283H186.646H187.646V34.1221H186.646ZM186.646 35.5283H185.646V36.9346H186.646H187.646V35.5283H186.646ZM186.646 36.9346H185.646V39.0439H186.646H187.646V36.9346H186.646ZM186.646 39.0439V38.0439H183.848V39.0439V40.0439H186.646V39.0439ZM183.848 39.0439V38.0439H182.441V39.0439V40.0439H183.848V39.0439ZM182.441 39.0439V38.0439H181.035V39.0439V40.0439H182.441V39.0439ZM181.035 39.0439V38.0439H179.629V39.0439V40.0439H181.035V39.0439ZM179.629 39.0439V40.0439H181.035V39.0439V38.0439H179.629V39.0439ZM181.035 39.0439V38.0439H179.629V39.0439V40.0439H181.035V39.0439ZM179.629 39.0439H180.629V27.8086H179.629H178.629V39.0439H179.629ZM179.629 27.8086L180.629 27.8152C180.636 26.8146 180.275 25.9331 179.492 25.3065C178.757 24.7189 177.757 24.4414 176.633 24.3509L176.553 25.3477L176.472 26.3444C177.409 26.4199 177.952 26.6356 178.242 26.8683C178.485 27.062 178.632 27.328 178.629 27.802L179.629 27.8086ZM176.553 25.3477L176.626 24.3504C175.744 24.2852 174.911 24.4276 174.171 24.8259C173.431 25.2241 172.852 25.8409 172.415 26.6136L173.286 27.1055L174.157 27.5973C174.443 27.0908 174.77 26.775 175.119 26.5871C175.467 26.3996 175.907 26.3027 176.479 26.3449L176.553 25.3477ZM173.286 27.1055H172.286V29.918H173.286H174.286V27.1055H173.286ZM173.286 29.918H172.286V31.3096H173.286H174.286V29.918H173.286ZM173.286 31.3096H172.286V34.8252H173.286H174.286V31.3096H173.286ZM173.286 34.8252H172.286V36.2314H173.286H174.286V34.8252H173.286ZM173.286 36.2314H172.286V39.0439H173.286H174.286V36.2314H173.286ZM173.286 39.0439V38.0439H169.785V39.0439V40.0439H173.286V39.0439ZM169.785 39.0439V38.0439H168.379V39.0439V40.0439H169.785V39.0439ZM168.379 39.0439V38.0439H166.973V39.0439V40.0439H168.379V39.0439ZM166.973 39.0439V38.0439H166.152V39.0439V40.0439H166.973V39.0439ZM166.152 39.0439H167.152V22.8867H166.152H165.152V39.0439H166.152ZM166.152 22.8867V23.8867H168.379V22.8867V21.8867H166.152V22.8867ZM168.379 22.8867V23.8867H169.785V22.8867V21.8867H168.379V22.8867ZM169.785 22.8867V23.8867H171.191V22.8867V21.8867H169.785V22.8867ZM171.191 22.8867V23.8867H172.583V22.8867V21.8867H171.191V22.8867ZM172.583 22.8867V21.8867H171.191V22.8867V23.8867H172.583V22.8867ZM171.191 22.8867V23.8867H173.315V22.8867V21.8867H171.191V22.8867ZM173.315 22.8867L172.315 22.8793L172.301 24.8421L173.301 24.8496L174.301 24.8571L174.315 22.8942L173.315 22.8867ZM208.486 38.9561H207.486V38.967L207.487 38.9779L208.486 38.9561ZM206.934 45.0352L206.11 44.4677L206.105 44.4753L206.934 45.0352ZM203.301 47.9941L203.704 48.9091L203.704 48.9091L203.301 47.9941ZM197.925 49.0195L197.918 50.0195L197.92 50.0195L197.925 49.0195ZM194.204 48.6094L194.449 47.6397L194.44 47.6376L194.204 48.6094ZM189.751 46.2217L189.002 46.8843L189.003 46.8852L189.751 46.2217ZM188.682 44.6543L187.782 45.0902L187.784 45.095L188.682 44.6543ZM188.037 40.3916V39.3916H187.141L187.043 40.2818L188.037 40.3916ZM194.541 40.3916L195.54 40.4252L195.575 39.3916H194.541V40.3916ZM194.79 43.4824L193.815 43.705L193.816 43.7073L194.79 43.4824ZM195.713 45.5918L196.494 44.9671L196.489 44.9606L196.483 44.9542L195.713 45.5918ZM196.548 46.2949L196.069 47.1729L196.08 47.1787L196.548 46.2949ZM199.023 46.2803L198.586 45.381L198.576 45.3858L198.567 45.3907L199.023 46.2803ZM199.932 45.5625L199.176 44.9076L199.164 44.921L199.153 44.9347L199.932 45.5625ZM200.869 43.3799L201.851 43.5714L201.852 43.566L200.869 43.3799ZM200.986 40.2012L199.987 40.226L199.987 40.2545L199.99 40.2829L200.986 40.2012ZM200.942 38.4287L201.942 38.4039L201.893 36.4163L200.326 37.6409L200.942 38.4287ZM196.035 38.9121L196.071 37.9127L196.063 37.9125L196.056 37.9123L196.035 38.9121ZM189.883 36.2461L189.086 36.8497L189.087 36.8519L189.883 36.2461ZM188.169 30.6211L189.166 30.7029L189.168 30.6725L189.169 30.6419L188.169 30.6211ZM188.608 27.9844L189.557 28.3006L189.558 28.2972L188.608 27.9844ZM189.736 25.5674L190.589 26.0897L190.589 26.0895L189.736 25.5674ZM190.791 24.293L191.462 25.0345L191.463 25.0337L190.791 24.293ZM192.168 23.3115L192.649 24.1881L192.655 24.1849L192.168 23.3115ZM193.779 22.623L194.076 23.5782L194.086 23.5749L193.779 22.623ZM195.566 22.2129L195.498 21.2152L195.462 21.2177L195.425 21.2229L195.566 22.2129ZM200.972 23.0479L200.326 23.8119L201.972 25.2011V23.0479H200.972ZM200.972 22.5059L200.958 21.506L199.972 21.5194V22.5059H200.972ZM208.486 22.4033H209.486V21.3896L208.473 21.4034L208.486 22.4033ZM198.408 24.0586L198.495 23.0624L198.43 23.0567L198.366 23.0595L198.408 24.0586ZM195.552 28.3213L194.552 28.2966L194.552 28.3089V28.3213H195.552ZM195.552 32.7451H194.552V32.7721L194.553 32.799L195.552 32.7451ZM198.467 37.0078L198.396 38.0053L198.484 38.0115L198.572 38.0023L198.467 37.0078ZM201.06 34.6494H200.06V34.66L200.06 34.6705L201.06 34.6494ZM201.06 26.9297L200.063 26.8517L200.06 26.8906V26.9297H201.06ZM208.486 38.9561L207.487 38.9779C207.514 40.2436 207.393 41.3068 207.144 42.1836L208.105 42.457L209.067 42.7305C209.384 41.6151 209.517 40.3443 209.486 38.9342L208.486 38.9561ZM208.105 42.457L207.144 42.1836C206.885 43.0931 206.536 43.8493 206.11 44.4677L206.934 45.0352L207.757 45.6026C208.327 44.7757 208.76 43.8131 209.067 42.7305L208.105 42.457ZM206.934 45.0352L206.105 44.4753C205.673 45.1153 205.185 45.6325 204.647 46.0384L205.249 46.8369L205.851 47.6354C206.582 47.0843 207.218 46.4003 207.762 45.595L206.934 45.0352ZM205.249 46.8369L204.647 46.0384C204.068 46.475 203.485 46.8201 202.897 47.0792L203.301 47.9941L203.704 48.9091C204.445 48.5823 205.161 48.1559 205.851 47.6354L205.249 46.8369ZM203.301 47.9941L202.897 47.0792C201.474 47.7069 199.825 48.0287 197.93 48.0195L197.925 49.0195L197.92 50.0195C200.048 50.0299 201.983 49.6681 203.704 48.9091L203.301 47.9941ZM197.925 49.0195L197.932 48.0196C196.552 48.0102 195.395 47.8786 194.449 47.6398L194.204 48.6094L193.959 49.579C195.103 49.8675 196.427 50.0094 197.918 50.0195L197.925 49.0195ZM194.204 48.6094L194.44 47.6376C193.46 47.3995 192.661 47.0961 192.027 46.7408L191.538 47.6133L191.049 48.4858C191.88 48.9507 192.858 49.3114 193.968 49.5811L194.204 48.6094ZM191.538 47.6133L192.027 46.7408C191.372 46.374 190.87 45.9764 190.499 45.5582L189.751 46.2217L189.003 46.8852C189.55 47.5021 190.24 48.0323 191.049 48.4858L191.538 47.6133ZM189.751 46.2217L190.5 45.5591C190.102 45.1095 189.799 44.6606 189.579 44.2136L188.682 44.6543L187.784 45.095C188.092 45.7222 188.501 46.3182 189.002 46.8843L189.751 46.2217ZM188.682 44.6543L189.582 44.2184C189.07 43.1625 188.873 41.9353 189.031 40.5014L188.037 40.3916L187.043 40.2818C186.85 42.0315 187.082 43.6461 187.782 45.0902L188.682 44.6543ZM188.037 40.3916V41.3916H194.541V40.3916V39.3916H188.037V40.3916ZM194.541 40.3916L193.542 40.358C193.5 41.5849 193.587 42.704 193.815 43.705L194.79 43.4824L195.765 43.2599C195.583 42.464 195.504 41.5226 195.54 40.4252L194.541 40.3916ZM194.79 43.4824L193.816 43.7073C193.915 44.1376 194.047 44.5611 194.211 44.9775L195.142 44.6104L196.072 44.2432C195.943 43.9174 195.841 43.589 195.764 43.2576L194.79 43.4824ZM195.142 44.6104L194.211 44.9775C194.393 45.4383 194.635 45.8584 194.942 46.2294L195.713 45.5918L196.483 44.9542C196.322 44.7588 196.183 44.5246 196.072 44.2432L195.142 44.6104ZM195.713 45.5918L194.932 46.2165C195.247 46.6107 195.628 46.9321 196.069 47.1728L196.548 46.2949L197.027 45.417C196.824 45.3062 196.647 45.1588 196.494 44.9671L195.713 45.5918ZM196.548 46.2949L196.08 47.1787C196.582 47.4444 197.139 47.5586 197.72 47.5586V46.5586V45.5586C197.402 45.5586 197.178 45.497 197.016 45.4111L196.548 46.2949ZM197.72 46.5586V47.5586C198.348 47.5586 198.947 47.4439 199.48 47.1698L199.023 46.2803L198.567 45.3907C198.378 45.4878 198.108 45.5586 197.72 45.5586V46.5586ZM199.023 46.2803L199.461 47.1795C199.95 46.9416 200.371 46.6113 200.71 46.1903L199.932 45.5625L199.153 44.9347C199.004 45.1192 198.82 45.2674 198.586 45.381L199.023 46.2803ZM199.932 45.5625L200.687 46.2174C201.021 45.8323 201.28 45.3941 201.466 44.9107L200.532 44.5518L199.599 44.1928C199.492 44.4712 199.35 44.7067 199.176 44.9076L199.932 45.5625ZM200.532 44.5518L201.466 44.9107C201.633 44.4756 201.761 44.0289 201.851 43.5714L200.869 43.3799L199.888 43.1884C199.821 43.5316 199.724 43.8662 199.599 44.1928L200.532 44.5518ZM200.869 43.3799L201.852 43.566C202.048 42.5303 202.086 41.3778 201.983 40.1195L200.986 40.2012L199.99 40.2829C200.082 41.4073 200.042 42.374 199.887 43.1937L200.869 43.3799ZM200.986 40.2012L201.986 40.1764L201.942 38.4039L200.942 38.4287L199.943 38.4535L199.987 40.226L200.986 40.2012ZM200.942 38.4287L200.326 37.6409C200.345 37.6263 200.291 37.6715 200.075 37.7291C199.874 37.7829 199.592 37.8322 199.215 37.8693C198.461 37.9436 197.419 37.9609 196.071 37.9127L196.035 38.9121L195.999 39.9115C197.386 39.961 198.529 39.9465 199.411 39.8597C199.852 39.8163 200.25 39.7527 200.592 39.6612C200.92 39.5735 201.271 39.4411 201.558 39.2165L200.942 38.4287ZM196.035 38.9121L196.056 37.9123C193.471 37.8581 191.751 37.0486 190.678 35.6403L189.883 36.2461L189.087 36.8519C190.632 38.8811 193.013 39.8489 196.014 39.9119L196.035 38.9121ZM189.883 36.2461L190.68 35.6425C189.509 34.0954 189.021 32.4614 189.166 30.7029L188.169 30.6211L187.172 30.5392C186.985 32.8237 187.64 34.9397 189.086 36.8497L189.883 36.2461ZM188.169 30.6211L189.169 30.6419C189.186 29.7964 189.318 29.0179 189.557 28.3006L188.608 27.9844L187.66 27.6681C187.352 28.5915 187.191 29.5707 187.169 30.6003L188.169 30.6211ZM188.608 27.9844L189.558 28.2972C189.806 27.5439 190.149 26.8083 190.589 26.0897L189.736 25.5674L188.884 25.0451C188.367 25.889 187.957 26.7646 187.659 27.6715L188.608 27.9844ZM189.736 25.5674L190.589 26.0895C190.833 25.6913 191.124 25.3406 191.462 25.0345L190.791 24.293L190.12 23.5514C189.638 23.9875 189.226 24.4865 188.883 25.0452L189.736 25.5674ZM190.791 24.293L191.463 25.0337C191.825 24.7055 192.22 24.424 192.649 24.1881L192.168 23.3115L191.687 22.4349C191.12 22.746 190.597 23.1187 190.119 23.5522L190.791 24.293ZM192.168 23.3115L192.655 24.1849C193.101 23.9361 193.574 23.7338 194.076 23.5781L193.779 22.623L193.483 21.668C192.852 21.8639 192.25 22.1205 191.681 22.4382L192.168 23.3115ZM193.779 22.623L194.086 23.5749C194.607 23.4072 195.147 23.2829 195.708 23.2028L195.566 22.2129L195.425 21.2229C194.755 21.3186 194.104 21.4678 193.473 21.6712L193.779 22.623ZM195.566 22.2129L195.634 23.2106C196.956 23.1206 198.007 23.1469 198.809 23.2707C199.624 23.3968 200.087 23.6097 200.326 23.8119L200.972 23.0479L201.617 22.2838C200.977 21.7438 200.1 21.4465 199.114 21.2942C198.114 21.1397 196.902 21.1196 195.498 21.2152L195.566 22.2129ZM200.972 23.0479H201.972V22.5059H200.972H199.972V23.0479H200.972ZM200.972 22.5059L200.985 23.5058L208.5 23.4032L208.486 22.4033L208.473 21.4034L200.958 21.506L200.972 22.5059ZM208.486 22.4033H207.486V23.6924H208.486H209.486V22.4033H208.486ZM208.486 23.6924H207.486V25.7432H208.486H209.486V23.6924H208.486ZM208.486 25.7432H207.486V27.1201H208.486H209.486V25.7432H208.486ZM208.486 27.1201H207.486V29.8594H208.486H209.486V27.1201H208.486ZM208.486 29.8594H207.486V31.9248H208.486H209.486V29.8594H208.486ZM208.486 31.9248H207.486V34.6641H208.486H209.486V31.9248H208.486ZM208.486 34.6641H207.486V38.9561H208.486H209.486V34.6641H208.486ZM198.408 24.0586L198.366 23.0595C197.157 23.1109 196.155 23.629 195.486 24.6262C194.858 25.5638 194.588 26.8309 194.552 28.2966L195.552 28.3213L196.551 28.346C196.584 27.048 196.824 26.2228 197.148 25.7395C197.432 25.3158 197.823 25.0844 198.451 25.0577L198.408 24.0586ZM195.552 28.3213H194.552V32.7451H195.552H196.552V28.3213H195.552ZM195.552 32.7451L194.553 32.799C194.631 34.2427 194.932 35.4861 195.565 36.4114C196.232 37.3871 197.21 37.9215 198.396 38.0053L198.467 37.0078L198.537 36.0103C197.927 35.9672 197.52 35.7276 197.216 35.2824C196.877 34.7868 196.619 33.9623 196.55 32.6912L195.552 32.7451ZM198.467 37.0078L198.572 38.0023C199.56 37.898 200.455 37.6116 201.106 37.0188C201.793 36.3946 202.079 35.5512 202.059 34.6283L201.06 34.6494L200.06 34.6705C200.07 35.1344 199.938 35.3774 199.76 35.5393C199.548 35.7327 199.132 35.9321 198.362 36.0133L198.467 37.0078ZM201.06 34.6494H202.06V26.9297H201.06H200.06V34.6494H201.06ZM201.06 26.9297L202.057 27.0077C202.139 25.9561 201.924 24.9692 201.234 24.2224C200.559 23.4916 199.581 23.1571 198.495 23.0624L198.408 24.0586L198.321 25.0548C199.139 25.1261 199.556 25.3531 199.765 25.5793C199.959 25.7896 200.117 26.1552 200.063 26.8517L201.06 26.9297ZM214.163 29.9167L213.659 30.7805L213.67 30.7867L214.163 29.9167ZM212.163 27.9583L211.303 28.4686L211.309 28.4792L212.163 27.9583ZM212.163 22.5417L211.309 22.0208L211.307 22.025L212.163 22.5417ZM214.163 20.6042L214.656 21.4743L214.667 21.4679L214.163 20.6042ZM219.704 20.6042L219.201 21.468L219.211 21.4742L219.704 20.6042ZM221.684 22.5417L220.824 23.0519L220.829 23.0605L220.834 23.069L221.684 22.5417ZM221.684 27.9583L220.83 27.4374L220.824 27.4481L221.684 27.9583ZM219.704 29.9167L220.197 30.7868L220.208 30.7804L219.704 29.9167ZM213.371 27.3125L214.229 26.798V26.798L213.371 27.3125ZM214.871 28.8125L214.357 29.67V29.67L214.871 28.8125ZM218.996 28.8125L218.482 27.955L218.473 27.9602L218.996 28.8125ZM220.496 27.3125L221.354 27.827V27.827L220.496 27.3125ZM220.496 23.1875L219.639 23.702L219.644 23.7105L220.496 23.1875ZM218.996 21.6875L218.473 22.5399L218.482 22.545L218.996 21.6875ZM213.371 23.1875L214.223 23.7105L214.229 23.702L213.371 23.1875ZM215.038 27.625H214.038V28.625H215.038V27.625ZM215.038 22.625V21.625H214.038V22.625H215.038ZM218.579 23.1667L217.872 23.8738L217.879 23.8807L217.886 23.8875L218.579 23.1667ZM218.163 25.9583L217.731 25.0562L216.667 25.5652L217.344 26.5318L218.163 25.9583ZM219.329 27.625V28.625H221.25L220.149 27.0515L219.329 27.625ZM217.892 27.625L217.067 28.1905L217.365 28.625H217.892V27.625ZM216.892 26.1667L217.717 25.6011L217.419 25.1667H216.892V26.1667ZM216.288 26.1667V25.1667H215.288V26.1667H216.288ZM216.288 27.625V28.625H217.288V27.625H216.288ZM216.288 25.1667H215.288V26.1667H216.288V25.1667ZM217.663 24.9583L218.37 25.6654L218.387 25.6486L218.403 25.631L217.663 24.9583ZM216.288 23.7083V22.7083H215.288V23.7083H216.288ZM216.934 30.625V29.625C216.082 29.625 215.33 29.4286 214.656 29.0466L214.163 29.9167L213.67 30.7867C214.662 31.3491 215.757 31.625 216.934 31.625V30.625ZM214.163 29.9167L214.667 29.0529C213.976 28.6499 213.43 28.1146 213.016 27.4375L212.163 27.9583L211.309 28.4792C211.896 29.4409 212.683 30.2112 213.659 30.7804L214.163 29.9167ZM212.163 27.9583L213.023 27.4481C212.632 26.7887 212.434 26.0631 212.434 25.25H211.434H210.434C210.434 26.4091 210.722 27.4891 211.303 28.4685L212.163 27.9583ZM211.434 25.25H212.434C212.434 24.4202 212.633 23.6981 213.019 23.0583L212.163 22.5417L211.307 22.025C210.72 22.9964 210.434 24.0798 210.434 25.25H211.434ZM212.163 22.5417L213.016 23.0625C213.428 22.3879 213.971 21.8624 214.656 21.4742L214.163 20.6042L213.67 19.7341C212.688 20.2904 211.897 21.0565 211.309 22.0208L212.163 22.5417ZM214.163 20.6042L214.667 21.4679C215.339 21.0757 216.087 20.875 216.934 20.875V19.875V18.875C215.752 18.875 214.653 19.1604 213.659 19.7404L214.163 20.6042ZM216.934 19.875V20.875C217.78 20.875 218.528 21.0757 219.201 21.4679L219.704 20.6042L220.208 19.7404C219.214 19.1604 218.115 18.875 216.934 18.875V19.875ZM219.704 20.6042L219.211 21.4742C219.894 21.861 220.427 22.3831 220.824 23.0519L221.684 22.5417L222.544 22.0315C221.968 21.0613 221.182 20.2918 220.197 19.7341L219.704 20.6042ZM221.684 22.5417L220.834 23.069C221.23 23.7074 221.434 24.4257 221.434 25.25H222.434H223.434C223.434 24.0743 223.137 22.987 222.533 22.0143L221.684 22.5417ZM222.434 25.25H221.434C221.434 26.0576 221.232 26.7793 220.83 27.4375L221.684 27.9583L222.537 28.4792C223.136 27.4984 223.434 26.4146 223.434 25.25H222.434ZM221.684 27.9583L220.824 27.4481C220.425 28.1194 219.889 28.6513 219.201 29.0529L219.704 29.9167L220.208 30.7804C221.187 30.2098 221.97 29.4361 222.544 28.4685L221.684 27.9583ZM219.704 29.9167L219.211 29.0466C218.537 29.4286 217.785 29.625 216.934 29.625V30.625V31.625C218.11 31.625 219.205 31.3491 220.197 30.7867L219.704 29.9167ZM212.809 25.25H211.809C211.809 26.1757 212.043 27.0419 212.514 27.827L213.371 27.3125L214.229 26.798C213.95 26.3331 213.809 25.8243 213.809 25.25H212.809ZM213.371 27.3125L212.514 27.827C212.973 28.5927 213.591 29.2105 214.357 29.67L214.871 28.8125L215.386 27.955C214.901 27.6645 214.519 27.2823 214.229 26.798L213.371 27.3125ZM214.871 28.8125L214.357 29.67C215.142 30.141 216.008 30.375 216.934 30.375V29.375V28.375C216.359 28.375 215.851 28.234 215.386 27.955L214.871 28.8125ZM216.934 29.375V30.375C217.87 30.375 218.74 30.1428 219.519 29.6648L218.996 28.8125L218.473 27.9602C218.03 28.2322 217.525 28.375 216.934 28.375V29.375ZM218.996 28.8125L219.511 29.67C220.276 29.2105 220.894 28.5927 221.354 27.827L220.496 27.3125L219.639 26.798C219.348 27.2823 218.966 27.6645 218.482 27.955L218.996 28.8125ZM220.496 27.3125L221.354 27.827C221.825 27.0419 222.059 26.1757 222.059 25.25H221.059H220.059C220.059 25.8243 219.918 26.3331 219.639 26.798L220.496 27.3125ZM221.059 25.25H222.059C222.059 24.3141 221.826 23.4433 221.348 22.6645L220.496 23.1875L219.644 23.7105C219.916 24.1539 220.059 24.6582 220.059 25.25H221.059ZM220.496 23.1875L221.354 22.673C220.894 21.9073 220.276 21.2895 219.511 20.83L218.996 21.6875L218.482 22.545C218.966 22.8355 219.348 23.2177 219.639 23.702L220.496 23.1875ZM218.996 21.6875L219.519 20.8352C218.74 20.3572 217.87 20.125 216.934 20.125V21.125V22.125C217.525 22.125 218.03 22.2678 218.473 22.5398L218.996 21.6875ZM216.934 21.125V20.125C216.008 20.125 215.142 20.359 214.357 20.83L214.871 21.6875L215.386 22.545C215.851 22.266 216.359 22.125 216.934 22.125V21.125ZM214.871 21.6875L214.357 20.83C213.591 21.2895 212.973 21.9073 212.514 22.673L213.371 23.1875L214.229 23.702C214.519 23.2177 214.901 22.8355 215.386 22.545L214.871 21.6875ZM213.371 23.1875L212.519 22.6645C212.041 23.4433 211.809 24.3141 211.809 25.25H212.809H213.809C213.809 24.6582 213.951 24.1539 214.223 23.7105L213.371 23.1875ZM215.038 27.625H216.038V22.625H215.038H214.038V27.625H215.038ZM215.038 22.625V23.625H217.079V22.625V21.625H215.038V22.625ZM217.079 22.625V23.625C217.523 23.625 217.743 23.7447 217.872 23.8738L218.579 23.1667L219.287 22.4596C218.693 21.8664 217.913 21.625 217.079 21.625V22.625ZM218.579 23.1667L217.886 23.8875C218.058 24.0527 218.121 24.2118 218.121 24.4167H219.121H220.121C220.121 23.6493 219.823 22.9751 219.273 22.4458L218.579 23.1667ZM219.121 24.4167H218.121C218.121 24.6276 218.076 24.7457 218.032 24.8158C217.989 24.8847 217.908 24.9715 217.731 25.0562L218.163 25.9583L218.594 26.8605C219.056 26.6397 219.454 26.3167 219.731 25.8717C220.007 25.4279 220.121 24.9279 220.121 24.4167H219.121ZM218.163 25.9583L217.344 26.5318L218.51 28.1985L219.329 27.625L220.149 27.0515L218.982 25.3849L218.163 25.9583ZM219.329 27.625V26.625H217.892V27.625V28.625H219.329V27.625ZM217.892 27.625L218.717 27.0595L217.717 25.6011L216.892 26.1667L216.067 26.7322L217.067 28.1905L217.892 27.625ZM216.892 26.1667V25.1667H216.288V26.1667V27.1667H216.892V26.1667ZM216.288 26.1667H215.288V27.625H216.288H217.288V26.1667H216.288ZM216.288 27.625V26.625H215.038V27.625V28.625H216.288V27.625ZM216.288 25.1667V26.1667H217.038V25.1667V24.1667H216.288V25.1667ZM217.038 25.1667V26.1667C217.47 26.1667 217.977 26.058 218.37 25.6654L217.663 24.9583L216.956 24.2512C216.98 24.2264 217.007 24.2067 217.031 24.192C217.055 24.1775 217.075 24.1697 217.086 24.1659C217.107 24.159 217.096 24.1667 217.038 24.1667V25.1667ZM217.663 24.9583L218.403 25.631C218.698 25.3066 218.871 24.897 218.871 24.4375H217.871H216.871C216.871 24.4127 216.876 24.3782 216.891 24.3422C216.905 24.3071 216.92 24.2884 216.923 24.2857L217.663 24.9583ZM217.871 24.4375H218.871C218.871 24.003 218.741 23.5051 218.321 23.138C217.927 22.7933 217.439 22.7083 217.038 22.7083V23.7083V24.7083C217.192 24.7083 217.12 24.7449 217.004 24.6432C216.944 24.5902 216.905 24.5271 216.885 24.4745C216.867 24.4278 216.871 24.4088 216.871 24.4375H217.871ZM217.038 23.7083V22.7083H216.288V23.7083V24.7083H217.038V23.7083ZM216.288 23.7083H215.288V25.1667H216.288H217.288V23.7083H216.288Z" fill="#1A1A1A" mask="url(#path-3-outside-2_607_117)"/>
</g>
<defs>
<filter id="filter0_d_607_117" x="0" y="0" width="243" height="58" filterUnits="userSpaceOnUse" color-interpolation-filters="sRGB">
<feFlood flood-opacity="0" result="BackgroundImageFix"/>
<feColorMatrix in="SourceAlpha" type="matrix" values="0 0 0 0 0 0 0 0 0 0 0 0 0 0 0 0 0 0 127 0" result="hardAlpha"/>
<feOffset dx="3" dy="3"/>
<feComposite in2="hardAlpha" operator="out"/>
<feColorMatrix type="matrix" values="0 0 0 0 0.101961 0 0 0 0 0.101961 0 0 0 0 0.101961 0 0 0 1 0"/>
<feBlend mode="normal" in2="BackgroundImageFix" result="effect1_dropShadow_607_117"/>
<feBlend mode="normal" in="SourceGraphic" in2="effect1_dropShadow_607_117" result="shape"/>
</filter>
<filter id="filter1_d_607_117" x="24.9229" y="14.3135" width="201.511" height="38.7063" filterUnits="userSpaceOnUse" color-interpolation-filters="sRGB">
<feFlood flood-opacity="0" result="BackgroundImageFix"/>
<feColorMatrix in="SourceAlpha" type="matrix" values="0 0 0 0 0 0 0 0 0 0 0 0 0 0 0 0 0 0 127 0" result="hardAlpha"/>
<feOffset dx="3" dy="3"/>
<feComposite in2="hardAlpha" operator="out"/>
<feColorMatrix type="matrix" values="0 0 0 0 0.101961 0 0 0 0 0.101961 0 0 0 0 0.101961 0 0 0 1 0"/>
<feBlend mode="normal" in2="BackgroundImageFix" result="effect1_dropShadow_607_117"/>
<feBlend mode="normal" in="SourceGraphic" in2="effect1_dropShadow_607_117" result="shape"/>
</filter>
</defs>
</svg>
