<?xml version="1.0" encoding="utf-8"?>
<!-- Generator: Adobe Illustrator 27.4.0, SVG Export Plug-In . SVG Version: 6.00 Build 0)  -->
<svg version="1.1" id="레이어_1" xmlns="http://www.w3.org/2000/svg" xmlns:xlink="http://www.w3.org/1999/xlink" x="0px"
	 y="0px" viewBox="0 0 753 402" style="enable-background:new 0 0 753 402;" xml:space="preserve">
<style type="text/css">
	.st0{fill:#FFFFFF;}
	.st1{fill:#38E053;}
</style>
<g>
	<path class="st0" d="M740.78,90.32V312.6c0,43.77-35.61,79.37-79.37,79.37H144.47c-43.77,0-79.37-35.61-79.37-79.37V90.32
		c0-43.77,35.61-79.37,79.37-79.37h516.94C705.17,10.94,740.78,46.55,740.78,90.32z M85.41,312.6c0,32.56,26.49,59.05,59.05,59.05
		h516.94c32.56,0,59.05-26.49,59.05-59.05V90.32c0-32.56-26.49-59.05-59.05-59.05H144.47c-32.56,0-59.05,26.49-59.05,59.05V312.6z"
		/>
	<path class="st0" d="M79.7,160.49v81.93c0,9.49-7.76,17.25-17.25,17.25H45.2c-20.16,0-36.65-16.49-36.65-36.65V179.9
		c0-20.16,16.49-36.65,36.65-36.65h17.25C71.93,143.24,79.7,151.01,79.7,160.49z"/>
	<path class="st1" d="M697.88,88.73v227.15c0,19.89-16.12,36.01-36.01,36.01h-38.08V52.72h38.08
		C681.75,52.72,697.88,68.84,697.88,88.73z"/>
	
		<rect x="409.36" y="165.26" transform="matrix(6.123234e-17 -1 1 6.123234e-17 356.6407 761.2501)" class="st1" width="299.18" height="74.1"/>
	
		<rect x="307.47" y="165.26" transform="matrix(6.123234e-17 -1 1 6.123234e-17 254.7569 659.3663)" class="st1" width="299.18" height="74.1"/>
	
		<rect x="202.7" y="163.56" transform="matrix(6.123234e-17 -1 1 6.123234e-17 151.6718 552.8947)" class="st1" width="299.18" height="74.1"/>
	
		<rect x="100.81" y="163.56" transform="matrix(6.123234e-17 -1 1 6.123234e-17 49.7881 451.0109)" class="st1" width="299.18" height="74.1"/>
	<path class="st1" d="M182.09,51.02V350.2h-33.51c-22.42,0-40.59-18.17-40.59-40.59v-218c0-22.42,18.17-40.59,40.59-40.59H182.09z"
		/>
</g>
</svg>
