<svg width="100" height="100" viewBox="0 0 100 100" fill="none" xmlns="http://www.w3.org/2000/svg">
<rect width="100" height="100" fill="#00005B"/>
<path d="M40.7956 60.752H25.2956L22.129 70.438C22.0456 70.8074 21.7123 71.0537 21.3373 71.0126H13.504C13.0456 71.0126 12.9206 70.7664 13.0456 70.2738L26.4623 32.3916C26.5873 31.9811 26.7123 31.6117 26.879 31.1192C27.0456 30.2573 27.129 29.3544 27.129 28.4515C27.0873 28.2463 27.254 28.041 27.4623 28H27.5873H38.254C38.5457 28 38.754 28.1231 38.7956 28.3283L54.004 70.1918C54.129 70.6432 54.004 70.8484 53.5873 70.8484H44.879C44.5873 70.8895 44.2956 70.6843 44.2123 70.397L40.7956 60.5468V60.752ZM27.7123 52.5845H38.2956C38.0456 51.7226 37.7123 50.6965 37.3373 49.6294C36.9623 48.5213 36.5873 47.331 36.2123 46.0998C35.7956 44.8275 35.4206 43.5962 35.004 42.3239C34.5873 41.0515 34.2123 39.8613 33.879 38.6711C33.5457 37.5219 33.254 36.4548 32.9623 35.4697H32.879C32.504 37.2346 32.0456 38.9994 31.4623 40.7642C30.8373 42.7343 30.2123 44.7864 29.5456 46.8385C29.004 48.9317 28.3373 50.8607 27.7123 52.5845Z" fill="#9999FF"/>
<path d="M78.5457 57.0581H65.3373C65.504 58.3304 65.9207 59.6027 66.629 60.7109C67.379 61.819 68.4207 62.6809 69.6707 63.1734C71.3373 63.8712 73.1707 64.2405 75.004 64.1995C76.4623 64.1585 77.9207 64.0353 79.3373 63.748C80.629 63.5839 81.879 63.2555 83.0457 62.8041C83.254 62.6399 83.379 62.722 83.379 63.1324V69.4119C83.379 69.5761 83.3373 69.7403 83.2957 69.9044C83.2123 70.0276 83.129 70.1096 83.004 70.1917C81.6707 70.7663 80.2957 71.1767 78.8373 71.423C76.879 71.7924 74.9207 71.9565 72.9207 71.9155C69.754 71.9155 67.0873 71.423 64.9207 70.479C62.879 69.6171 61.0873 68.2627 59.6707 66.58C58.3373 64.9793 57.379 63.1734 56.7957 61.2034C56.2123 59.2744 55.9207 57.2633 55.9207 55.2112C55.9207 52.9949 56.254 50.8196 56.9623 48.6854C57.629 46.6333 58.6707 44.7453 60.0873 43.0626C61.4623 41.4209 63.1707 40.1075 65.129 39.1635C67.0873 38.2196 69.4207 37.8912 72.0873 37.8912C74.2957 37.8502 76.504 38.2606 78.5457 39.1635C80.254 39.9023 81.754 41.0105 82.9207 42.4469C84.004 43.8424 84.879 45.402 85.4207 47.1258C85.9623 48.7675 86.2123 50.4502 86.2123 52.133C86.2123 53.118 86.1707 53.9799 86.129 54.7597C86.0457 55.5395 86.004 56.1141 85.9623 56.4835C85.9207 56.7708 85.6707 57.0171 85.379 57.0171C85.129 57.0171 84.6707 57.0581 84.004 57.0991C83.3373 57.1812 82.5457 57.2223 81.5873 57.2223C80.629 57.2223 79.629 57.0581 78.5457 57.0581ZM65.3373 51.0659H74.129C75.2123 51.0659 76.004 51.0659 76.504 51.0248C76.8373 50.9838 77.1707 50.9017 77.4623 50.6965V50.2861C77.4623 49.7525 77.379 49.26 77.2123 48.7675C76.4623 46.4691 74.254 44.9095 71.7957 44.9916C69.504 44.8685 67.3373 46.0587 66.254 48.1108C65.754 49.0548 65.4623 50.0398 65.3373 51.0659Z" fill="#9999FF"/>
</svg>
