<svg width="100" height="100" viewBox="0 0 100 100" fill="none" xmlns="http://www.w3.org/2000/svg">
<rect width="100" height="100" fill="white"/>
<path d="M49.355 53.0962C49.507 50.3862 50.834 47.9987 52.836 46.3063C54.7993 44.644 57.4419 43.6279 60.3253 43.6279C63.2058 43.6279 65.8484 44.644 67.8131 46.3063C69.8137 47.9987 71.1407 50.3863 71.294 53.0933C71.4459 55.8777 70.3267 58.4644 68.3634 60.3819C66.3614 62.3322 63.5139 63.5561 60.3253 63.5561C57.1367 63.5561 54.2834 62.3322 52.2828 60.3819C50.3181 58.4644 49.2017 55.8777 49.355 53.0962Z" fill="#265787"/>
<path d="M31.886 58.5852C31.9046 59.6456 32.2428 61.7064 32.7501 63.3157C33.8163 66.7221 35.6249 69.8734 38.1414 72.6506C40.7238 75.5053 43.9038 77.7982 47.5768 79.4262C51.4375 81.1358 55.6206 82.0071 59.9657 82C64.3037 81.9942 68.4868 81.1057 72.3475 79.3832C76.0205 77.7394 79.1976 75.4365 81.7757 72.5805C84.2908 69.7917 86.0965 66.6347 87.1656 63.2283C87.703 61.5072 88.0426 59.7603 88.1788 58.0077C88.312 56.2808 88.2561 54.5511 88.0111 52.8228C87.5324 49.4551 86.3673 46.2952 84.5731 43.4148C82.9322 40.7679 80.817 38.4507 78.302 36.5003L78.3077 36.496L52.9264 17.0078C52.9035 16.9906 52.8849 16.972 52.8605 16.9562C51.1953 15.6779 48.3951 15.6822 46.5636 16.9634C44.712 18.2589 44.4999 20.4013 46.148 21.7526L46.1408 21.7598L56.727 30.3682L24.4612 30.4026H24.4182C21.7512 30.4055 19.1875 32.1552 18.6802 34.3664C18.1585 36.6192 19.9699 38.4879 22.7429 38.4979L22.7386 38.508L39.0929 38.4765L9.9097 60.8767C9.87244 60.9039 9.83231 60.9325 9.79792 60.9598C7.04498 63.0678 6.15505 66.573 7.88908 68.7914C9.6489 71.0471 13.3907 71.0514 16.1723 68.8043L32.0995 55.7692C32.0995 55.7692 31.8673 57.529 31.886 58.5852ZM72.8133 64.4779C69.5315 67.8212 64.9371 69.7172 59.9657 69.7272C54.9872 69.7358 50.3928 67.8571 47.111 64.5195C45.5074 62.893 44.3294 61.0214 43.6028 59.028C42.8906 57.069 42.614 54.9896 42.7974 52.8916C42.9708 50.8409 43.5813 48.8848 44.5558 47.1149C45.5131 45.3752 46.8316 43.8032 48.4595 42.4733C51.6496 39.8737 55.7109 38.4664 59.9586 38.4607C64.2105 38.455 68.269 39.8493 71.4619 42.4403C73.087 43.7645 74.404 45.3308 75.3613 47.0677C76.3401 48.8361 76.9463 50.785 77.1269 52.8415C77.3074 54.9366 77.0308 57.0131 76.3186 58.9736C75.5906 60.9727 74.4169 62.8442 72.8133 64.4779Z" fill="#EA7600"/>
</svg>
