<svg width="100" height="100" viewBox="0 0 100 100" fill="none" xmlns="http://www.w3.org/2000/svg">
<path d="M100 0L0 0.000113487L2.38419e-06 100H100V0Z" fill="#330000"/>
<path d="M48.8439 26.46H33.8799L16.6919 72.708H30.0839L32.3159 65.8H49.5079L51.7399 72.708H65.5399L48.8479 26.46H48.8439ZM40.9079 54.26H36.0399L40.9079 39.184L45.7759 54.26H40.9079Z" fill="#FF9A00"/>
<path d="M79.6401 36.2959H67.248V72.7079H79.6401V36.2959Z" fill="#FF9A00"/>
<path d="M80.048 29.7121C80.084 33.1081 77.336 35.5081 73.448 35.4761C69.556 35.5081 66.812 33.1081 66.848 29.7121C66.812 26.3161 69.56 23.9161 73.448 23.9481C77.34 23.9161 80.084 26.3161 80.048 29.7121Z" fill="#FF9A00"/>
</svg>
