<svg width="100" height="100" viewBox="0 0 100 100" fill="none" xmlns="http://www.w3.org/2000/svg">
<rect width="100" height="100" fill="#001E36"/>
<path d="M22 71.3598V28.7047C22 28.4145 22.125 28.2487 22.4167 28.2487C23.125 28.2487 23.7917 28.2487 24.75 28.2073C25.75 28.1658 26.7917 28.1658 27.9167 28.1244C29.0417 28.0829 30.25 28.0829 31.5417 28.0415C32.8333 28 34.0833 28 35.3333 28C38.75 28 41.5833 28.4145 43.9167 29.285C46 29.9897 47.9167 31.1504 49.5 32.6842C50.8333 34.0107 51.875 35.6273 52.5417 37.4098C53.1667 39.1509 53.5 40.9333 53.5 42.7987C53.5 46.3637 52.6667 49.3068 51 51.6282C49.3333 53.9496 47 55.6906 44.2917 56.6855C41.4583 57.7218 38.3333 58.0949 34.9167 58.0949C33.9167 58.0949 33.25 58.0949 32.8333 58.0534C32.4167 58.012 31.8333 58.012 31.0417 58.012V71.3184C31.0833 71.6085 30.875 71.8573 30.5833 71.8987C30.5417 71.8987 30.5 71.8987 30.4167 71.8987H22.5C22.1667 71.8987 22 71.7329 22 71.3598ZM31.0833 36.2491V50.1774C31.6667 50.2188 32.2083 50.2603 32.7083 50.2603H34.9167C36.5417 50.2603 38.1667 50.0115 39.7083 49.5141C41.0417 49.141 42.2083 48.3534 43.125 47.3171C44 46.2808 44.4167 44.8714 44.4167 43.0474C44.4583 41.7624 44.125 40.4774 43.4583 39.3581C42.75 38.2803 41.75 37.4513 40.5417 36.9953C39 36.3735 37.3333 36.1248 35.625 36.1662C34.5417 36.1662 33.5833 36.1662 32.7917 36.2077C31.9583 36.1662 31.375 36.2077 31.0833 36.2491Z" fill="#31A8FF"/>
<path d="M79.5001 47.6486C78.2501 46.9854 76.9168 46.5294 75.5001 46.2392C73.9584 45.9076 72.4168 45.7004 70.8334 45.7004C70.0001 45.6589 69.1251 45.7833 68.3334 45.9905C67.7918 46.1149 67.3334 46.4051 67.0418 46.8196C66.8334 47.1512 66.7084 47.5657 66.7084 47.9388C66.7084 48.3119 66.8751 48.685 67.1251 49.0166C67.5001 49.4726 68.0001 49.8457 68.5418 50.1358C69.5001 50.6333 70.5001 51.0892 71.5001 51.5038C73.7501 52.2499 75.9168 53.2863 77.9168 54.5298C79.2918 55.4004 80.4168 56.561 81.2084 57.9704C81.8751 59.2969 82.2084 60.7478 82.1668 62.2401C82.2084 64.1884 81.6251 66.1367 80.5418 67.7533C79.3751 69.4115 77.7501 70.6965 75.8751 71.4427C73.8334 72.3132 71.3334 72.7692 68.3334 72.7692C66.4168 72.7692 64.5418 72.6033 62.6668 72.2303C61.2084 71.9816 59.7501 71.5256 58.4168 70.9038C58.1251 70.738 57.9168 70.4478 57.9584 70.1162V62.9033C57.9584 62.779 58.0001 62.6132 58.1251 62.5303C58.2501 62.4474 58.3751 62.4888 58.5001 62.5717C60.1251 63.5251 61.8334 64.1884 63.6668 64.6029C65.2501 65.0175 66.9168 65.2247 68.5834 65.2247C70.1668 65.2247 71.2918 65.0174 72.0418 64.6444C72.7084 64.3542 73.1668 63.6495 73.1668 62.9033C73.1668 62.323 72.8334 61.7841 72.1668 61.2452C71.5001 60.7063 70.1251 60.0845 68.0834 59.2969C65.9584 58.5508 64.0001 57.5559 62.1668 56.3123C60.8751 55.4004 59.7918 54.1982 59.0001 52.7888C58.3334 51.4623 58.0001 50.0115 58.0418 48.5606C58.0418 46.7781 58.5418 45.0786 59.4584 43.5448C60.5001 41.8867 62.0418 40.5602 63.8334 39.7311C65.7918 38.7363 68.2501 38.2803 71.2084 38.2803C72.9168 38.2803 74.6668 38.4046 76.3751 38.6533C77.6251 38.8192 78.8334 39.1508 79.9584 39.6068C80.1251 39.6482 80.2918 39.814 80.3751 39.9798C80.4168 40.1457 80.4584 40.3115 80.4584 40.4773V47.2341C80.4584 47.3999 80.3751 47.5657 80.2501 47.6486C79.8751 47.7316 79.6668 47.7316 79.5001 47.6486Z" fill="#31A8FF"/>
</svg>
